<svg class="cm-diagram cm-02" viewBox="0 0 1000 780" role="img" aria-labelledby="cm-02-t cm-02-d" xmlns="http://www.w3.org/2000/svg"><title id="cm-02-t">Concentration de la frontière et prolifération de son sillage</title><desc id="cm-02-d">Deux registres partagent le même axe de temps, de 2023 à 2028, coupé par une verticale à juillet 2026 qui sépare ce qui est mesuré de ce qui est projeté. Registre du haut : une bande contre-hachurée dense figure la frontière fermée, tenue par quatre à six laboratoires et resserrée sur vingt-cinq points Elo. En dessous court la ligne du meilleur modèle ouvert ; l'écart hachuré entre les deux ne converge pas, il se referme puis se rouvre par vagues — deux valeurs sont relevées, zéro virgule cinq pour cent en août 2024 et trois virgule trois pour cent en mars 2026 ; le tracé qui les relie est schématique. Le registre du haut s'arrête à juillet 2026, où s'arrêtent les mesures citées. Registre du bas : le sillage. Trois canaux — distillation, imitation, ouverture des poids — descendent de la frontière vers un coin qui s'élargit, peuplé d'anneaux de plus en plus nombreux. Chaque anneau figure un modèle ; les anneaux en pointillé sont projetés. La projection retenue place entre cent et trois cents modèles au-dessus du seuil de calcul de l'AI Act d'ici la fin de 2028.</desc><defs><pattern id="cm-02-oxx" width="4.5" height="4.5" patternUnits="userSpaceOnUse" patternTransform="rotate(45)"><path class="cm-02-p0" d="M0 0V4.5M0 0H4.5"/></pattern><pattern id="cm-02-ox1" width="8" height="8" patternUnits="userSpaceOnUse" patternTransform="rotate(45)"><line class="cm-02-p1" x1="0" y1="0" x2="0" y2="8"/></pattern><pattern id="cm-02-stip" width="6.0" height="6.0" patternUnits="userSpaceOnUse"><circle class="cm-02-p2" cx="3.0" cy="3.0" r="0.8"/><circle class="cm-02-p2" cx="0" cy="0" r="0.8"/><circle class="cm-02-p2" cx="6.0" cy="6.0" r="0.8"/><circle class="cm-02-p2" cx="0" cy="6.0" r="0.8"/><circle class="cm-02-p2" cx="6.0" cy="0" r="0.8"/></pattern><marker id="cm-02-arox" viewBox="0 0 10 10" refX="9" refY="5" markerWidth="7" markerHeight="7" orient="auto"><path class="cm-02-p3" d="M1 1l8 4-8 4"/></marker><clipPath id="cm-02-cone"><path d="M120.0 684.0 L884.0 494.0 L884.0 620.7 Z"/></clipPath></defs><style>.cm-02 .r{fill:none;stroke:var(--ink,#1c1c18);stroke-width:1;vector-effect:non-scaling-stroke}
.cm-02 .rf{fill:none;stroke:var(--ink,#1c1c18);stroke-width:.6;vector-effect:non-scaling-stroke}
.cm-02 .rl{fill:none;stroke:var(--line,#c9c1b3);stroke-width:.8;vector-effect:non-scaling-stroke}
.cm-02 .rg{fill:none;stroke:var(--line,#c9c1b3);stroke-width:.8;stroke-dasharray:2 6;vector-effect:non-scaling-stroke}
.cm-02 .rox{fill:none;stroke:var(--oxide,#a84e2f);stroke-width:1.6;vector-effect:non-scaling-stroke}
.cm-02 .rbl{fill:none;stroke:var(--blue,#2d5b8a);stroke-width:1.6;vector-effect:non-scaling-stroke}
.cm-02 .rms{fill:none;stroke:var(--moss,#52634e);stroke-width:1.4;vector-effect:non-scaling-stroke}
.cm-02 .rdash{fill:none;stroke:var(--graphite,#57564f);stroke-width:.9;stroke-dasharray:3 5;vector-effect:non-scaling-stroke}
.cm-02 .rgd{fill:none;stroke:var(--oxide,#a84e2f);stroke-width:.9;stroke-dasharray:3 4;vector-effect:non-scaling-stroke}
.cm-02 .rbd{fill:none;stroke:var(--blue,#2d5b8a);stroke-width:1.2;stroke-dasharray:3 4;vector-effect:non-scaling-stroke}
.cm-02 .lead{fill:none;stroke:var(--graphite,#57564f);stroke-width:.7;vector-effect:non-scaling-stroke}
.cm-02 .card{fill:var(--paper,#f3efe6);stroke:var(--ink,#1c1c18);stroke-width:.9;vector-effect:non-scaling-stroke}
.cm-02 .cardl{fill:var(--paper,#f3efe6);stroke:var(--line,#c9c1b3);stroke-width:.8;vector-effect:non-scaling-stroke}
.cm-02 text{fill:var(--ink,#1c1c18)}
.cm-02 .ts{font-family:var(--font-editorial,"Newsreader",Georgia,serif);font-size:25px;font-weight:500;letter-spacing:-.015em}
.cm-02 .tsm{font-family:var(--font-editorial,"Newsreader",Georgia,serif);font-size:18px;font-weight:500;letter-spacing:-.01em}
.cm-02 .t{font-family:var(--font-interface,"Inter",Arial,sans-serif);font-size:14.5px;font-weight:500}
.cm-02 .tt{font-family:var(--font-interface,"Inter",Arial,sans-serif);font-size:12.5px;font-weight:500}
.cm-02 .l{fill:var(--graphite,#57564f);font-family:var(--font-code,"IBM Plex Mono",ui-monospace,monospace);font-size:11.5px;font-weight:500;letter-spacing:.05em}
.cm-02 .ll{fill:var(--graphite,#57564f);font-family:var(--font-code,"IBM Plex Mono",ui-monospace,monospace);font-size:10.5px;font-weight:500;letter-spacing:.07em}
.cm-02 .num{fill:var(--oxide,#a84e2f);font-family:var(--font-code,"IBM Plex Mono",ui-monospace,monospace);font-size:13px;font-weight:500;letter-spacing:.03em}
.cm-02 .val{font-family:var(--font-code,"IBM Plex Mono",ui-monospace,monospace);font-size:18px;font-weight:500}
.cm-02 .ox{fill:var(--oxide,#a84e2f)}
.cm-02 .bl{fill:var(--blue,#2d5b8a)}
.cm-02 .ms{fill:var(--moss,#52634e)}
.cm-02 .gr{fill:var(--graphite,#57564f)}
.cm-02 .h{paint-order:stroke;stroke:var(--paper,#f3efe6);stroke-width:3px;stroke-linejoin:round}
.cm-02 .hh{paint-order:stroke;stroke:var(--paper,#f3efe6);stroke-width:4.5px;stroke-linejoin:round}
.cm-02 .cm-02-p0{fill:none;stroke:var(--oxide,#a84e2f);stroke-width:0.6;opacity:0.5}
.cm-02 .cm-02-p1{stroke:var(--oxide,#a84e2f);stroke-width:0.6;opacity:0.34}
.cm-02 .cm-02-p2{fill:var(--graphite,#57564f);opacity:0.5}
.cm-02 .cm-02-p3{fill:none;stroke:var(--oxide,#a84e2f);stroke-width:1.3}</style><text x="60" y="28" class="l ox h">PL.&#8202;02 / MORPHOLOGIE DU MARCHÉ</text><text x="940" y="28" text-anchor="end" class="ll h">CE QUI EST MESURÉ | CE QUI EST PROJETÉ</text><text x="500" y="760" text-anchor="middle" class="ll ox h">LA FRONTIÈRE SE CONCENTRE · SON SILLAGE PROLIFÈRE</text><path d="M52 52H948" class="r"/><text x="60" y="96" class="ts">La frontière se concentre, son sillage prolifère</text><text x="60" y="119" class="ll">DEUX REGISTRES · UN MÊME AXE DE TEMPS · LA VERTICALE DE JUILLET 2026 SÉPARE LE MESURÉ DU PROJETÉ</text><text x="60" y="146" class="l bl">01 / LA FRONTIÈRE EST DISPUTÉE, PAS VERROUILLÉE — L’ÉCART SE REFERME ET SE ROUVRE</text><path d="M120.0 250.0C199.7 242.2 518.6 211.1 598.3 203.3L598.3 249.7C590.7 251.5 566.1 260.3 552.8 260.6C539.5 260.8 533.8 255.2 518.6 251.1C503.4 247.0 480.6 234.5 461.7 235.9C442.7 237.2 425.6 258.9 404.7 259.0C383.8 259.2 359.2 236.8 336.4 236.9C313.6 237.0 292.7 252.6 268.1 259.6C243.4 266.5 213.0 270.5 188.3 278.5C163.7 286.5 131.4 302.8 120.0 307.6Z" fill="url(#cm-02-ox1)" stroke="none"/><path d="M120.0 239.0 L598.3 192.3 L598.3 203.3 L120.0 250.0 Z" fill="url(#cm-02-oxx)" stroke="var(--oxide,#a84e2f)" stroke-width="1.3" vector-effect="non-scaling-stroke"/><path d="M120.0 307.6C131.4 302.8 163.7 286.5 188.3 278.5C213.0 270.5 243.4 266.5 268.1 259.6C292.7 252.6 313.6 237.0 336.4 236.9C359.2 236.8 383.8 259.2 404.7 259.0C425.6 258.9 442.7 237.2 461.7 235.9C480.6 234.5 503.4 247.0 518.6 251.1C533.8 255.2 539.5 260.8 552.8 260.6C566.1 260.3 590.7 251.5 598.3 249.7" class="rbl"/><path d="M120.0 384H598.3" class="rl"/><path d="M120.0 384v6" class="rf"/><text x="120.0" y="404" class="ll" text-anchor="middle">2023</text><path d="M256.7 384v6" class="rf"/><text x="256.6666666666667" y="404" class="ll" text-anchor="middle">2024</text><path d="M393.3 384v6" class="rf"/><text x="393.33333333333337" y="404" class="ll" text-anchor="middle">2025</text><path d="M530.0 384v6" class="rf"/><text x="530.0" y="404" class="ll" text-anchor="middle">2026</text><text transform="rotate(-90 100 300)" x="100" y="300" class="ll" text-anchor="middle">CAPACITÉ — ÉCHELLE SCHÉMATIQUE</text><path d="M336.4 228.9V236.9" class="rox"/><path d="M336.4 228.9h-5m10 0M336.4 236.9h-5m10 0" class="rox"/><path d="M330.4 316 L336.4 240.9" class="lead"/><text x="306.3888888888889" y="328" class="ll ox h" text-anchor="end">0,5 % — AOÛT 2024</text><circle cx="336.4" cy="236.9" r="3.4" fill="var(--blue,#2d5b8a)"/><path d="M552.8 207.8V260.6" class="rox"/><path d="M552.8 207.8h-5m10 0M552.8 260.6h-5m10 0" class="rox"/><path d="M558.8 316 L552.8 264.6" class="lead"/><text x="566.7777777777778" y="328" class="ll ox h" text-anchor="start">3,3 % — MARS 2026</text><circle cx="552.8" cy="260.6" r="3.4" fill="var(--blue,#2d5b8a)"/><text x="132" y="288" class="ll ox h">L’ÉCART</text><path d="M598.3 158V384" class="rgd"/><path d="M598.3 470V684" class="rgd"/><text x="604.3333333333334" y="170" class="ll ox h">JUILLET 2026</text><path d="M608 200 L578 199.3" class="lead"/><text x="614" y="196" class="tsm ox">Frontière fermée</text><text x="614" y="214" class="ll">4 À 6 LABORATOIRES · 25 POINTS ELO D’ÉCART</text><text x="614" y="228" class="ll">ENTRE LES QUATRE PREMIERS (MARS 2026)</text><path d="M608 282 L586 256.7" class="lead"/><text x="614" y="278" class="ll bl">MEILLEUR MODÈLE OUVERT</text><text x="614" y="292" class="ll">POIDS PUBLIÉS · MEILLEUR SCORE PUBLIC</text><text x="614" y="340" class="ll ox">TRACÉ SCHÉMATIQUE : DEUX VALEURS RELEVÉES,</text><text x="614" y="354" class="ll ox">LA VAGUE QUI LES RELIE NE L’EST PAS</text><text x="614" y="368" class="ll">AU-DELÀ : HORS DES MESURES CITÉES</text><path d="M52 424H948" class="rl"/><text x="60" y="452" class="l ox">02 / LE SILLAGE — LES GÉNÉRATIONS EN RETRAIT DEVIENNENT PLUS NOMBREUSES ET PLUS TRANSFORMABLES</text><g clip-path="url(#cm-02-cone)"><rect x="120.0" y="494.0" width="764.0" height="190.0" fill="url(#cm-02-stip)"/></g><path d="M120.0 684.0 L598.3 565.0M120.0 684.0 L598.3 644.4" class="rl"/><path d="M598.3 565.0 L884.0 494.0 L884.0 620.7 L598.3 644.4" class="rgd"/><circle cx="454.1" cy="651.1" r="2.6" fill="none" stroke="var(--blue,#2d5b8a)" stroke-width=".9" opacity="0.8" vector-effect="non-scaling-stroke"/><circle cx="841.3" cy="603.6" r="2.6" fill="none" stroke="var(--blue,#2d5b8a)" stroke-width=".9" opacity="0.55" stroke-dasharray="2.2 2" vector-effect="non-scaling-stroke"/><circle cx="775.3" cy="549.0" r="2.6" fill="none" stroke="var(--blue,#2d5b8a)" stroke-width=".9" opacity="0.55" stroke-dasharray="2.2 2" vector-effect="non-scaling-stroke"/><circle cx="643.5" cy="575.2" r="2.6" fill="none" stroke="var(--blue,#2d5b8a)" stroke-width=".9" opacity="0.55" stroke-dasharray="2.2 2" vector-effect="non-scaling-stroke"/><circle cx="573.3" cy="580.1" r="2.6" fill="none" stroke="var(--blue,#2d5b8a)" stroke-width=".9" opacity="0.8" vector-effect="non-scaling-stroke"/><circle cx="727.8" cy="626.8" r="2.6" fill="none" stroke="var(--blue,#2d5b8a)" stroke-width=".9" opacity="0.55" stroke-dasharray="2.2 2" vector-effect="non-scaling-stroke"/><circle cx="865.3" cy="516.4" r="2.6" fill="none" stroke="var(--blue,#2d5b8a)" stroke-width=".9" opacity="0.55" stroke-dasharray="2.2 2" vector-effect="non-scaling-stroke"/><circle cx="490.8" cy="620.2" r="2.6" fill="none" stroke="var(--blue,#2d5b8a)" stroke-width=".9" opacity="0.8" vector-effect="non-scaling-stroke"/><circle cx="748.2" cy="548.1" r="2.6" fill="none" stroke="var(--blue,#2d5b8a)" stroke-width=".9" opacity="0.55" stroke-dasharray="2.2 2" vector-effect="non-scaling-stroke"/><circle cx="848.7" cy="522.7" r="2.6" fill="none" stroke="var(--blue,#2d5b8a)" stroke-width=".9" opacity="0.55" stroke-dasharray="2.2 2" vector-effect="non-scaling-stroke"/><circle cx="730.4" cy="568.6" r="2.6" fill="none" stroke="var(--blue,#2d5b8a)" stroke-width=".9" opacity="0.55" stroke-dasharray="2.2 2" vector-effect="non-scaling-stroke"/><circle cx="695.1" cy="584.8" r="2.6" fill="none" stroke="var(--blue,#2d5b8a)" stroke-width=".9" opacity="0.55" stroke-dasharray="2.2 2" vector-effect="non-scaling-stroke"/><circle cx="859.0" cy="569.2" r="2.6" fill="none" stroke="var(--blue,#2d5b8a)" stroke-width=".9" opacity="0.55" stroke-dasharray="2.2 2" vector-effect="non-scaling-stroke"/><circle cx="858.5" cy="617.4" r="2.6" fill="none" stroke="var(--blue,#2d5b8a)" stroke-width=".9" opacity="0.55" stroke-dasharray="2.2 2" vector-effect="non-scaling-stroke"/><circle cx="813.4" cy="561.2" r="2.6" fill="none" stroke="var(--blue,#2d5b8a)" stroke-width=".9" opacity="0.55" stroke-dasharray="2.2 2" vector-effect="non-scaling-stroke"/><circle cx="551.0" cy="643.0" r="2.6" fill="none" stroke="var(--blue,#2d5b8a)" stroke-width=".9" opacity="0.8" vector-effect="non-scaling-stroke"/><circle cx="803.8" cy="523.3" r="2.6" fill="none" stroke="var(--blue,#2d5b8a)" stroke-width=".9" opacity="0.55" stroke-dasharray="2.2 2" vector-effect="non-scaling-stroke"/><circle cx="601.7" cy="591.3" r="2.6" fill="none" stroke="var(--blue,#2d5b8a)" stroke-width=".9" opacity="0.55" stroke-dasharray="2.2 2" vector-effect="non-scaling-stroke"/><circle cx="820.2" cy="602.4" r="2.6" fill="none" stroke="var(--blue,#2d5b8a)" stroke-width=".9" opacity="0.55" stroke-dasharray="2.2 2" vector-effect="non-scaling-stroke"/><circle cx="702.0" cy="549.1" r="2.6" fill="none" stroke="var(--blue,#2d5b8a)" stroke-width=".9" opacity="0.55" stroke-dasharray="2.2 2" vector-effect="non-scaling-stroke"/><circle cx="757.6" cy="568.7" r="2.6" fill="none" stroke="var(--blue,#2d5b8a)" stroke-width=".9" opacity="0.55" stroke-dasharray="2.2 2" vector-effect="non-scaling-stroke"/><circle cx="610.6" cy="570.9" r="2.6" fill="none" stroke="var(--blue,#2d5b8a)" stroke-width=".9" opacity="0.55" stroke-dasharray="2.2 2" vector-effect="non-scaling-stroke"/><circle cx="784.2" cy="621.4" r="2.6" fill="none" stroke="var(--blue,#2d5b8a)" stroke-width=".9" opacity="0.55" stroke-dasharray="2.2 2" vector-effect="non-scaling-stroke"/><circle cx="854.6" cy="552.8" r="2.6" fill="none" stroke="var(--blue,#2d5b8a)" stroke-width=".9" opacity="0.55" stroke-dasharray="2.2 2" vector-effect="non-scaling-stroke"/><circle cx="645.3" cy="625.7" r="2.6" fill="none" stroke="var(--blue,#2d5b8a)" stroke-width=".9" opacity="0.55" stroke-dasharray="2.2 2" vector-effect="non-scaling-stroke"/><circle cx="758.5" cy="600.1" r="2.6" fill="none" stroke="var(--blue,#2d5b8a)" stroke-width=".9" opacity="0.55" stroke-dasharray="2.2 2" vector-effect="non-scaling-stroke"/><circle cx="596.6" cy="616.1" r="2.6" fill="none" stroke="var(--blue,#2d5b8a)" stroke-width=".9" opacity="0.8" vector-effect="non-scaling-stroke"/><circle cx="804.3" cy="586.4" r="2.6" fill="none" stroke="var(--blue,#2d5b8a)" stroke-width=".9" opacity="0.55" stroke-dasharray="2.2 2" vector-effect="non-scaling-stroke"/><circle cx="373.9" cy="653.6" r="2.6" fill="none" stroke="var(--blue,#2d5b8a)" stroke-width=".9" opacity="0.8" vector-effect="non-scaling-stroke"/><circle cx="825.8" cy="518.2" r="2.6" fill="none" stroke="var(--blue,#2d5b8a)" stroke-width=".9" opacity="0.55" stroke-dasharray="2.2 2" vector-effect="non-scaling-stroke"/><circle cx="610.9" cy="626.7" r="2.6" fill="none" stroke="var(--blue,#2d5b8a)" stroke-width=".9" opacity="0.55" stroke-dasharray="2.2 2" vector-effect="non-scaling-stroke"/><circle cx="829.4" cy="556.6" r="2.6" fill="none" stroke="var(--blue,#2d5b8a)" stroke-width=".9" opacity="0.55" stroke-dasharray="2.2 2" vector-effect="non-scaling-stroke"/><circle cx="711.9" cy="609.4" r="2.6" fill="none" stroke="var(--blue,#2d5b8a)" stroke-width=".9" opacity="0.55" stroke-dasharray="2.2 2" vector-effect="non-scaling-stroke"/><circle cx="665.2" cy="578.9" r="2.6" fill="none" stroke="var(--blue,#2d5b8a)" stroke-width=".9" opacity="0.55" stroke-dasharray="2.2 2" vector-effect="non-scaling-stroke"/><circle cx="874.4" cy="590.4" r="2.6" fill="none" stroke="var(--blue,#2d5b8a)" stroke-width=".9" opacity="0.55" stroke-dasharray="2.2 2" vector-effect="non-scaling-stroke"/><circle cx="728.5" cy="598.1" r="2.6" fill="none" stroke="var(--blue,#2d5b8a)" stroke-width=".9" opacity="0.55" stroke-dasharray="2.2 2" vector-effect="non-scaling-stroke"/><circle cx="547.1" cy="615.4" r="2.6" fill="none" stroke="var(--blue,#2d5b8a)" stroke-width=".9" opacity="0.8" vector-effect="non-scaling-stroke"/><circle cx="627.5" cy="578.9" r="2.6" fill="none" stroke="var(--blue,#2d5b8a)" stroke-width=".9" opacity="0.55" stroke-dasharray="2.2 2" vector-effect="non-scaling-stroke"/><circle cx="820.7" cy="533.6" r="2.6" fill="none" stroke="var(--blue,#2d5b8a)" stroke-width=".9" opacity="0.55" stroke-dasharray="2.2 2" vector-effect="non-scaling-stroke"/><circle cx="786.0" cy="599.5" r="2.6" fill="none" stroke="var(--blue,#2d5b8a)" stroke-width=".9" opacity="0.55" stroke-dasharray="2.2 2" vector-effect="non-scaling-stroke"/><circle cx="874.8" cy="613.7" r="2.6" fill="none" stroke="var(--blue,#2d5b8a)" stroke-width=".9" opacity="0.55" stroke-dasharray="2.2 2" vector-effect="non-scaling-stroke"/><circle cx="571.9" cy="605.9" r="2.6" fill="none" stroke="var(--blue,#2d5b8a)" stroke-width=".9" opacity="0.8" vector-effect="non-scaling-stroke"/><circle cx="300.6" cy="661.2" r="2.6" fill="none" stroke="var(--blue,#2d5b8a)" stroke-width=".9" opacity="0.8" vector-effect="non-scaling-stroke"/><circle cx="853.4" cy="589.7" r="2.6" fill="none" stroke="var(--blue,#2d5b8a)" stroke-width=".9" opacity="0.55" stroke-dasharray="2.2 2" vector-effect="non-scaling-stroke"/><circle cx="503.7" cy="645.4" r="2.6" fill="none" stroke="var(--blue,#2d5b8a)" stroke-width=".9" opacity="0.8" vector-effect="non-scaling-stroke"/><circle cx="794.1" cy="538.4" r="2.6" fill="none" stroke="var(--blue,#2d5b8a)" stroke-width=".9" opacity="0.55" stroke-dasharray="2.2 2" vector-effect="non-scaling-stroke"/><circle cx="430.4" cy="638.9" r="2.6" fill="none" stroke="var(--blue,#2d5b8a)" stroke-width=".9" opacity="0.8" vector-effect="non-scaling-stroke"/><circle cx="739.1" cy="614.5" r="2.6" fill="none" stroke="var(--blue,#2d5b8a)" stroke-width=".9" opacity="0.55" stroke-dasharray="2.2 2" vector-effect="non-scaling-stroke"/><circle cx="671.5" cy="612.8" r="2.6" fill="none" stroke="var(--blue,#2d5b8a)" stroke-width=".9" opacity="0.55" stroke-dasharray="2.2 2" vector-effect="non-scaling-stroke"/><circle cx="528.9" cy="640.4" r="2.6" fill="none" stroke="var(--blue,#2d5b8a)" stroke-width=".9" opacity="0.8" vector-effect="non-scaling-stroke"/><circle cx="816.4" cy="618.6" r="2.6" fill="none" stroke="var(--blue,#2d5b8a)" stroke-width=".9" opacity="0.55" stroke-dasharray="2.2 2" vector-effect="non-scaling-stroke"/><circle cx="777.1" cy="586.4" r="2.6" fill="none" stroke="var(--blue,#2d5b8a)" stroke-width=".9" opacity="0.55" stroke-dasharray="2.2 2" vector-effect="non-scaling-stroke"/><circle cx="464.7" cy="622.6" r="2.6" fill="none" stroke="var(--blue,#2d5b8a)" stroke-width=".9" opacity="0.8" vector-effect="non-scaling-stroke"/><circle cx="877.9" cy="565.1" r="2.6" fill="none" stroke="var(--blue,#2d5b8a)" stroke-width=".9" opacity="0.55" stroke-dasharray="2.2 2" vector-effect="non-scaling-stroke"/><circle cx="873.9" cy="536.1" r="2.6" fill="none" stroke="var(--blue,#2d5b8a)" stroke-width=".9" opacity="0.55" stroke-dasharray="2.2 2" vector-effect="non-scaling-stroke"/><circle cx="749.1" cy="584.7" r="2.6" fill="none" stroke="var(--blue,#2d5b8a)" stroke-width=".9" opacity="0.55" stroke-dasharray="2.2 2" vector-effect="non-scaling-stroke"/><circle cx="710.1" cy="629.2" r="2.6" fill="none" stroke="var(--blue,#2d5b8a)" stroke-width=".9" opacity="0.55" stroke-dasharray="2.2 2" vector-effect="non-scaling-stroke"/><circle cx="532.6" cy="596.1" r="2.6" fill="none" stroke="var(--blue,#2d5b8a)" stroke-width=".9" opacity="0.8" vector-effect="non-scaling-stroke"/><circle cx="855.9" cy="536.5" r="2.6" fill="none" stroke="var(--blue,#2d5b8a)" stroke-width=".9" opacity="0.55" stroke-dasharray="2.2 2" vector-effect="non-scaling-stroke"/><circle cx="772.1" cy="609.4" r="2.6" fill="none" stroke="var(--blue,#2d5b8a)" stroke-width=".9" opacity="0.55" stroke-dasharray="2.2 2" vector-effect="non-scaling-stroke"/><circle cx="502.1" cy="599.3" r="2.6" fill="none" stroke="var(--blue,#2d5b8a)" stroke-width=".9" opacity="0.8" vector-effect="non-scaling-stroke"/><circle cx="519.8" cy="605.8" r="2.6" fill="none" stroke="var(--blue,#2d5b8a)" stroke-width=".9" opacity="0.8" vector-effect="non-scaling-stroke"/><circle cx="784.4" cy="525.9" r="2.6" fill="none" stroke="var(--blue,#2d5b8a)" stroke-width=".9" opacity="0.55" stroke-dasharray="2.2 2" vector-effect="non-scaling-stroke"/><circle cx="801.5" cy="606.0" r="2.6" fill="none" stroke="var(--blue,#2d5b8a)" stroke-width=".9" opacity="0.55" stroke-dasharray="2.2 2" vector-effect="non-scaling-stroke"/><circle cx="694.5" cy="617.3" r="2.6" fill="none" stroke="var(--blue,#2d5b8a)" stroke-width=".9" opacity="0.55" stroke-dasharray="2.2 2" vector-effect="non-scaling-stroke"/><circle cx="675.9" cy="556.5" r="2.6" fill="none" stroke="var(--blue,#2d5b8a)" stroke-width=".9" opacity="0.55" stroke-dasharray="2.2 2" vector-effect="non-scaling-stroke"/><circle cx="618.2" cy="598.3" r="2.6" fill="none" stroke="var(--blue,#2d5b8a)" stroke-width=".9" opacity="0.55" stroke-dasharray="2.2 2" vector-effect="non-scaling-stroke"/><circle cx="699.5" cy="566.1" r="2.6" fill="none" stroke="var(--blue,#2d5b8a)" stroke-width=".9" opacity="0.55" stroke-dasharray="2.2 2" vector-effect="non-scaling-stroke"/><circle cx="697.5" cy="601.2" r="2.6" fill="none" stroke="var(--blue,#2d5b8a)" stroke-width=".9" opacity="0.55" stroke-dasharray="2.2 2" vector-effect="non-scaling-stroke"/><circle cx="843.6" cy="572.8" r="2.6" fill="none" stroke="var(--blue,#2d5b8a)" stroke-width=".9" opacity="0.55" stroke-dasharray="2.2 2" vector-effect="non-scaling-stroke"/><circle cx="562.1" cy="624.9" r="2.6" fill="none" stroke="var(--blue,#2d5b8a)" stroke-width=".9" opacity="0.8" vector-effect="non-scaling-stroke"/><circle cx="757.8" cy="623.9" r="2.6" fill="none" stroke="var(--blue,#2d5b8a)" stroke-width=".9" opacity="0.55" stroke-dasharray="2.2 2" vector-effect="non-scaling-stroke"/><path d="M120.0 684.0H884.0" class="r"/><path d="M120.0 684.0V490.0" class="rl"/><path d="M120.0 684.0v6" class="rf"/><text x="120.0" y="706.0" class="ll" text-anchor="middle">2023</text><path d="M256.7 684.0v6" class="rf"/><text x="256.6666666666667" y="706.0" class="ll" text-anchor="middle">2024</text><path d="M393.3 684.0v6" class="rf"/><text x="393.33333333333337" y="706.0" class="ll" text-anchor="middle">2025</text><path d="M530.0 684.0v6" class="rf"/><text x="530.0" y="706.0" class="ll" text-anchor="middle">2026</text><path d="M666.7 684.0v6" class="rf"/><text x="666.6666666666667" y="706.0" class="ll" text-anchor="middle">2027</text><path d="M803.3 684.0v6" class="rf"/><text x="803.3333333333334" y="706.0" class="ll" text-anchor="middle">2028</text><text transform="rotate(-90 100 590)" x="100" y="590" class="ll" text-anchor="middle">NOMBRE DE MODÈLES</text><path d="M898.0 494.0V620.7" class="rox"/><path d="M898.0 494.0h-5m10 0M898.0 620.7h-5m10 0" class="rox"/><text x="908.0" y="498.0" class="ll ox">300</text><text x="908.0" y="624.7" class="ll ox">100</text><path d="M228.0 470 V647.1" class="rox" stroke-width="1.1" marker-end="url(#cm-02-arox)"/><text transform="rotate(-90 241.0 558.6)" x="241.0" y="558.6" class="ll ox h" text-anchor="middle">DISTILLATION</text><path d="M392.0 470 V606.4" class="rox" stroke-width="1.1" marker-end="url(#cm-02-arox)"/><text transform="rotate(-90 405.0 538.2)" x="405.0" y="538.2" class="ll ox h" text-anchor="middle">IMITATION</text><path d="M556.0 470 V565.6" class="rox" stroke-width="1.1" marker-end="url(#cm-02-arox)"/><text transform="rotate(-90 569.0 517.8)" x="569.0" y="517.8" class="ll ox h" text-anchor="middle">OUVERTURE</text><text x="640" y="560" class="ll ox h">PROJECTION : 100 À 300 MODÈLES</text><text x="640" y="574" class="ll h">AU-DESSUS DU SEUIL DE CALCUL DE</text><text x="640" y="588" class="ll h">L’AI ACT D’ICI FIN 2028</text><path d="M60 706H940" class="rl"/></svg>
