<svg class="cm-diagram cm-01" viewBox="0 0 1000 640" role="img" aria-labelledby="cm-01-t cm-01-d" xmlns="http://www.w3.org/2000/svg"><title id="cm-01-t">L'écart entre le coût de l'avance et le coût de la copie</title><desc id="cm-01-d">Sur une même fenêtre de novembre 2022 à octobre 2024 et un même axe logarithmique, deux indices rapportés à une base 100. L'indice du coût d'entraînement de la frontière monte selon la tendance estimée de 2,4 fois par an, encadrée par un faisceau de 2,0 à 2,9 fois par an. L'indice du prix d'inférence nécessaire pour atteindre le niveau GPT-3.5 sur MMLU descend, sur six points relevés, de 100 à 0,35. Entre les deux courbes s'ouvre un coin hachuré qui s'élargit avec le temps : c'est l'espace où prolifèrent les modèles dérivés, figurés par un semis d'anneaux dont la densité croît vers la droite. Le rapport des deux indices atteint environ 1500 en vingt-trois mois ; c'est un rapport d'indices, non un prix.</desc><defs><pattern id="cm-01-beam" width="9" height="9" patternUnits="userSpaceOnUse" patternTransform="rotate(45)"><line class="cm-01-p0" x1="0" y1="0" x2="0" y2="9"/></pattern><marker id="cm-01-arox" viewBox="0 0 10 10" refX="9" refY="5" markerWidth="7" markerHeight="7" orient="auto"><path class="cm-01-p1" d="M1 1l8 4-8 4"/></marker><clipPath id="cm-01-wedge"><path d="M150.0 244.6C154.8 244.1 169.2 242.6 178.8 241.6C188.4 240.6 198.0 239.6 207.6 238.6C217.2 237.6 226.8 236.6 236.3 235.6C245.9 234.6 255.5 233.6 265.1 232.6C274.7 231.6 284.3 230.6 293.9 229.6C303.5 228.6 313.1 227.6 322.7 226.6C332.3 225.6 341.9 224.6 351.5 223.6C361.1 222.6 370.7 221.6 380.3 220.6C389.9 219.6 399.4 218.6 409.0 217.6C418.6 216.6 428.2 215.6 437.8 214.6C447.4 213.6 457.0 212.6 466.6 211.6C476.2 210.6 485.8 209.6 495.4 208.6C505.0 207.6 514.6 206.6 524.2 205.6C533.8 204.6 543.4 203.6 553.0 202.6C562.6 201.6 572.1 200.6 581.7 199.6C591.3 198.6 600.9 197.6 610.5 196.6C620.1 195.6 629.7 194.6 639.3 193.6C648.9 192.6 658.5 191.6 668.1 190.6C677.7 189.6 687.3 188.6 696.9 187.7C706.5 186.7 716.1 185.7 725.7 184.7C735.2 183.7 744.8 182.7 754.4 181.7C764.0 180.7 773.6 179.7 783.2 178.7C792.8 177.7 807.2 176.2 812.0 175.7L812.0 476.9C797.6 470.8 768.8 455.6 725.7 440.0C682.5 424.4 600.9 395.8 553.0 383.5C505.0 371.2 490.6 373.5 437.8 366.1C385.1 358.7 284.3 359.4 236.3 339.2C188.4 319.0 164.4 260.4 150.0 244.6Z"/></clipPath><pattern id="cm-01-st0" width="9.0" height="9.0" patternUnits="userSpaceOnUse"><circle class="cm-01-p2" cx="4.5" cy="4.5" r="0.72"/><circle class="cm-01-p2" cx="0" cy="0" r="0.72"/><circle class="cm-01-p2" cx="9.0" cy="9.0" r="0.72"/><circle class="cm-01-p2" cx="0" cy="9.0" r="0.72"/><circle class="cm-01-p2" cx="9.0" cy="0" r="0.72"/></pattern><pattern id="cm-01-st1" width="7.0" height="7.0" patternUnits="userSpaceOnUse"><circle class="cm-01-p3" cx="3.5" cy="3.5" r="0.72"/><circle class="cm-01-p3" cx="0" cy="0" r="0.72"/><circle class="cm-01-p3" cx="7.0" cy="7.0" r="0.72"/><circle class="cm-01-p3" cx="0" cy="7.0" r="0.72"/><circle class="cm-01-p3" cx="7.0" cy="0" r="0.72"/></pattern><pattern id="cm-01-st2" width="5.6" height="5.6" patternUnits="userSpaceOnUse"><circle class="cm-01-p4" cx="2.8" cy="2.8" r="0.72"/><circle class="cm-01-p4" cx="0" cy="0" r="0.72"/><circle class="cm-01-p4" cx="5.6" cy="5.6" r="0.72"/><circle class="cm-01-p4" cx="0" cy="5.6" r="0.72"/><circle class="cm-01-p4" cx="5.6" cy="0" r="0.72"/></pattern><pattern id="cm-01-st3" width="4.4" height="4.4" patternUnits="userSpaceOnUse"><circle class="cm-01-p5" cx="2.2" cy="2.2" r="0.72"/><circle class="cm-01-p5" cx="0" cy="0" r="0.72"/><circle class="cm-01-p5" cx="4.4" cy="4.4" r="0.72"/><circle class="cm-01-p5" cx="0" cy="4.4" r="0.72"/><circle class="cm-01-p5" cx="4.4" cy="0" r="0.72"/></pattern></defs><style>.cm-01 .r{fill:none;stroke:var(--ink,#1c1c18);stroke-width:1;vector-effect:non-scaling-stroke}
.cm-01 .rf{fill:none;stroke:var(--ink,#1c1c18);stroke-width:.6;vector-effect:non-scaling-stroke}
.cm-01 .rl{fill:none;stroke:var(--line,#c9c1b3);stroke-width:.8;vector-effect:non-scaling-stroke}
.cm-01 .rg{fill:none;stroke:var(--line,#c9c1b3);stroke-width:.8;stroke-dasharray:2 6;vector-effect:non-scaling-stroke}
.cm-01 .rox{fill:none;stroke:var(--oxide,#a84e2f);stroke-width:1.6;vector-effect:non-scaling-stroke}
.cm-01 .rbl{fill:none;stroke:var(--blue,#2d5b8a);stroke-width:1.6;vector-effect:non-scaling-stroke}
.cm-01 .rms{fill:none;stroke:var(--moss,#52634e);stroke-width:1.4;vector-effect:non-scaling-stroke}
.cm-01 .rdash{fill:none;stroke:var(--graphite,#57564f);stroke-width:.9;stroke-dasharray:3 5;vector-effect:non-scaling-stroke}
.cm-01 .rgd{fill:none;stroke:var(--oxide,#a84e2f);stroke-width:.9;stroke-dasharray:3 4;vector-effect:non-scaling-stroke}
.cm-01 .rbd{fill:none;stroke:var(--blue,#2d5b8a);stroke-width:1.2;stroke-dasharray:3 4;vector-effect:non-scaling-stroke}
.cm-01 .lead{fill:none;stroke:var(--graphite,#57564f);stroke-width:.7;vector-effect:non-scaling-stroke}
.cm-01 .card{fill:var(--paper,#f3efe6);stroke:var(--ink,#1c1c18);stroke-width:.9;vector-effect:non-scaling-stroke}
.cm-01 .cardl{fill:var(--paper,#f3efe6);stroke:var(--line,#c9c1b3);stroke-width:.8;vector-effect:non-scaling-stroke}
.cm-01 text{fill:var(--ink,#1c1c18)}
.cm-01 .ts{font-family:var(--font-editorial,"Newsreader",Georgia,serif);font-size:25px;font-weight:500;letter-spacing:-.015em}
.cm-01 .tsm{font-family:var(--font-editorial,"Newsreader",Georgia,serif);font-size:18px;font-weight:500;letter-spacing:-.01em}
.cm-01 .t{font-family:var(--font-interface,"Inter",Arial,sans-serif);font-size:14.5px;font-weight:500}
.cm-01 .tt{font-family:var(--font-interface,"Inter",Arial,sans-serif);font-size:12.5px;font-weight:500}
.cm-01 .l{fill:var(--graphite,#57564f);font-family:var(--font-code,"IBM Plex Mono",ui-monospace,monospace);font-size:11.5px;font-weight:500;letter-spacing:.05em}
.cm-01 .ll{fill:var(--graphite,#57564f);font-family:var(--font-code,"IBM Plex Mono",ui-monospace,monospace);font-size:10.5px;font-weight:500;letter-spacing:.07em}
.cm-01 .num{fill:var(--oxide,#a84e2f);font-family:var(--font-code,"IBM Plex Mono",ui-monospace,monospace);font-size:13px;font-weight:500;letter-spacing:.03em}
.cm-01 .val{font-family:var(--font-code,"IBM Plex Mono",ui-monospace,monospace);font-size:18px;font-weight:500}
.cm-01 .ox{fill:var(--oxide,#a84e2f)}
.cm-01 .bl{fill:var(--blue,#2d5b8a)}
.cm-01 .ms{fill:var(--moss,#52634e)}
.cm-01 .gr{fill:var(--graphite,#57564f)}
.cm-01 .h{paint-order:stroke;stroke:var(--paper,#f3efe6);stroke-width:3px;stroke-linejoin:round}
.cm-01 .hh{paint-order:stroke;stroke:var(--paper,#f3efe6);stroke-width:4.5px;stroke-linejoin:round}
.cm-01 .cm-01-p0{stroke:var(--oxide,#a84e2f);stroke-width:0.6;opacity:0.3}
.cm-01 .cm-01-p1{fill:none;stroke:var(--oxide,#a84e2f);stroke-width:1.3}
.cm-01 .cm-01-p2{fill:var(--graphite,#57564f);opacity:0.46}
.cm-01 .cm-01-p3{fill:var(--graphite,#57564f);opacity:0.46}
.cm-01 .cm-01-p4{fill:var(--graphite,#57564f);opacity:0.46}
.cm-01 .cm-01-p5{fill:var(--graphite,#57564f);opacity:0.46}</style><text x="60" y="28" class="l ox h">PL.&#8202;01 / ÉCONOMIE DE LA FRONTIÈRE</text><text x="940" y="28" text-anchor="end" class="ll h">DEUX INDICES · UNE SEULE ÉCHELLE</text><text x="500" y="620" text-anchor="middle" class="ll ox h">C’EST DANS CET ÉCART QUE PROLIFÈRENT LES MODÈLES</text><path d="M52 52H948" class="r"/><text x="60" y="96" class="ts">Ce que coûte l’avance, ce que coûte la copie</text><text x="60" y="119" class="ll">DEUX INDICES, BASE 100 EN NOV. 2022 · MÊME FENÊTRE · MÊME AXE LOGARITHMIQUE</text><path d="M150.0 150.0 H812.0" class="rg"/><text x="140.0" y="154.0" class="ll" text-anchor="end">1 000</text><path d="M150.0 244.6 H812.0" class="rg"/><text x="140.0" y="248.6" class="ll" text-anchor="end">100 — base</text><path d="M150.0 339.2 H812.0" class="rg"/><text x="140.0" y="343.2" class="ll" text-anchor="end">10</text><path d="M150.0 433.8 H812.0" class="rg"/><text x="140.0" y="437.79999999999995" class="ll" text-anchor="end">1</text><path d="M150.0 499.9 H812.0" class="rg"/><text x="140.0" y="503.9225624101873" class="ll" text-anchor="end">0,2</text><path d="M150.0 244.6 H812.0" class="rf" opacity=".5" stroke-dasharray="1 4"/><path d="M150.0 499.9V505.9" class="rf"/><text x="150.0" y="521.9225624101873" class="ll" text-anchor="start">NOV. 2022</text><path d="M495.4 499.9V505.9" class="rf"/><text x="495.3913043478261" y="521.9225624101873" class="ll" text-anchor="middle">NOV. 2023</text><path d="M812.0 499.9V505.9" class="rf"/><text x="812.0" y="521.9225624101873" class="ll" text-anchor="end">OCT. 2024</text><path d="M150.0 244.6C154.8 244.0 169.2 242.2 178.8 241.0C188.4 239.7 198.0 238.5 207.6 237.3C217.2 236.1 226.8 234.9 236.3 233.7C245.9 232.4 255.5 231.2 265.1 230.0C274.7 228.8 284.3 227.6 293.9 226.4C303.5 225.2 313.1 223.9 322.7 222.7C332.3 221.5 341.9 220.3 351.5 219.1C361.1 217.9 370.7 216.7 380.3 215.4C389.9 214.2 399.4 213.0 409.0 211.8C418.6 210.6 428.2 209.4 437.8 208.1C447.4 206.9 457.0 205.7 466.6 204.5C476.2 203.3 485.8 202.1 495.4 200.9C505.0 199.6 514.6 198.4 524.2 197.2C533.8 196.0 543.4 194.8 553.0 193.6C562.6 192.4 572.1 191.1 581.7 189.9C591.3 188.7 600.9 187.5 610.5 186.3C620.1 185.1 629.7 183.8 639.3 182.6C648.9 181.4 658.5 180.2 668.1 179.0C677.7 177.8 687.3 176.6 696.9 175.3C706.5 174.1 716.1 172.9 725.7 171.7C735.2 170.5 744.8 169.3 754.4 168.1C764.0 166.8 773.6 165.6 783.2 164.4C792.8 163.2 807.2 161.4 812.0 160.8L812.0 190.0C807.2 190.4 792.8 191.6 783.2 192.4C773.6 193.2 764.0 194.0 754.4 194.8C744.8 195.6 735.2 196.3 725.7 197.1C716.1 197.9 706.5 198.7 696.9 199.5C687.3 200.3 677.7 201.1 668.1 201.9C658.5 202.7 648.9 203.5 639.3 204.3C629.7 205.0 620.1 205.8 610.5 206.6C600.9 207.4 591.3 208.2 581.7 209.0C572.1 209.8 562.6 210.6 553.0 211.4C543.4 212.2 533.8 213.0 524.2 213.7C514.6 214.5 505.0 215.3 495.4 216.1C485.8 216.9 476.2 217.7 466.6 218.5C457.0 219.3 447.4 220.1 437.8 220.9C428.2 221.7 418.6 222.5 409.0 223.2C399.4 224.0 389.9 224.8 380.3 225.6C370.7 226.4 361.1 227.2 351.5 228.0C341.9 228.8 332.3 229.6 322.7 230.4C313.1 231.2 303.5 231.9 293.9 232.7C284.3 233.5 274.7 234.3 265.1 235.1C255.5 235.9 245.9 236.7 236.3 237.5C226.8 238.3 217.2 239.1 207.6 239.9C198.0 240.6 188.4 241.4 178.8 242.2C169.2 243.0 154.8 244.2 150.0 244.6Z" fill="url(#cm-01-beam)" stroke="none"/><path d="M150.0 244.6C154.8 244.0 169.2 242.2 178.8 241.0C188.4 239.7 198.0 238.5 207.6 237.3C217.2 236.1 226.8 234.9 236.3 233.7C245.9 232.4 255.5 231.2 265.1 230.0C274.7 228.8 284.3 227.6 293.9 226.4C303.5 225.2 313.1 223.9 322.7 222.7C332.3 221.5 341.9 220.3 351.5 219.1C361.1 217.9 370.7 216.7 380.3 215.4C389.9 214.2 399.4 213.0 409.0 211.8C418.6 210.6 428.2 209.4 437.8 208.1C447.4 206.9 457.0 205.7 466.6 204.5C476.2 203.3 485.8 202.1 495.4 200.9C505.0 199.6 514.6 198.4 524.2 197.2C533.8 196.0 543.4 194.8 553.0 193.6C562.6 192.4 572.1 191.1 581.7 189.9C591.3 188.7 600.9 187.5 610.5 186.3C620.1 185.1 629.7 183.8 639.3 182.6C648.9 181.4 658.5 180.2 668.1 179.0C677.7 177.8 687.3 176.6 696.9 175.3C706.5 174.1 716.1 172.9 725.7 171.7C735.2 170.5 744.8 169.3 754.4 168.1C764.0 166.8 773.6 165.6 783.2 164.4C792.8 163.2 807.2 161.4 812.0 160.8" class="rgd"/><path d="M150.0 244.6C154.8 244.2 169.2 243.0 178.8 242.2C188.4 241.4 198.0 240.6 207.6 239.9C217.2 239.1 226.8 238.3 236.3 237.5C245.9 236.7 255.5 235.9 265.1 235.1C274.7 234.3 284.3 233.5 293.9 232.7C303.5 231.9 313.1 231.2 322.7 230.4C332.3 229.6 341.9 228.8 351.5 228.0C361.1 227.2 370.7 226.4 380.3 225.6C389.9 224.8 399.4 224.0 409.0 223.2C418.6 222.5 428.2 221.7 437.8 220.9C447.4 220.1 457.0 219.3 466.6 218.5C476.2 217.7 485.8 216.9 495.4 216.1C505.0 215.3 514.6 214.5 524.2 213.7C533.8 213.0 543.4 212.2 553.0 211.4C562.6 210.6 572.1 209.8 581.7 209.0C591.3 208.2 600.9 207.4 610.5 206.6C620.1 205.8 629.7 205.0 639.3 204.3C648.9 203.5 658.5 202.7 668.1 201.9C677.7 201.1 687.3 200.3 696.9 199.5C706.5 198.7 716.1 197.9 725.7 197.1C735.2 196.3 744.8 195.6 754.4 194.8C764.0 194.0 773.6 193.2 783.2 192.4C792.8 191.6 807.2 190.4 812.0 190.0" class="rgd"/><g clip-path="url(#cm-01-wedge)"><rect x="150.0" y="150.0" width="166.1" height="349.9" fill="url(#cm-01-st0)"/><rect x="315.5" y="150.0" width="166.1" height="349.9" fill="url(#cm-01-st1)"/><rect x="481.0" y="150.0" width="166.1" height="349.9" fill="url(#cm-01-st2)"/><rect x="646.5" y="150.0" width="166.1" height="349.9" fill="url(#cm-01-st3)"/></g><path d="M150.0 244.6C154.8 244.1 169.2 242.6 178.8 241.6C188.4 240.6 198.0 239.6 207.6 238.6C217.2 237.6 226.8 236.6 236.3 235.6C245.9 234.6 255.5 233.6 265.1 232.6C274.7 231.6 284.3 230.6 293.9 229.6C303.5 228.6 313.1 227.6 322.7 226.6C332.3 225.6 341.9 224.6 351.5 223.6C361.1 222.6 370.7 221.6 380.3 220.6C389.9 219.6 399.4 218.6 409.0 217.6C418.6 216.6 428.2 215.6 437.8 214.6C447.4 213.6 457.0 212.6 466.6 211.6C476.2 210.6 485.8 209.6 495.4 208.6C505.0 207.6 514.6 206.6 524.2 205.6C533.8 204.6 543.4 203.6 553.0 202.6C562.6 201.6 572.1 200.6 581.7 199.6C591.3 198.6 600.9 197.6 610.5 196.6C620.1 195.6 629.7 194.6 639.3 193.6C648.9 192.6 658.5 191.6 668.1 190.6C677.7 189.6 687.3 188.6 696.9 187.7C706.5 186.7 716.1 185.7 725.7 184.7C735.2 183.7 744.8 182.7 754.4 181.7C764.0 180.7 773.6 179.7 783.2 178.7C792.8 177.7 807.2 176.2 812.0 175.7L812.0 476.9C797.6 470.8 768.8 455.6 725.7 440.0C682.5 424.4 600.9 395.8 553.0 383.5C505.0 371.2 490.6 373.5 437.8 366.1C385.1 358.7 284.3 359.4 236.3 339.2C188.4 319.0 164.4 260.4 150.0 244.6Z" fill="none" stroke="var(--line,#c9c1b3)" stroke-width=".7" vector-effect="non-scaling-stroke"/><circle cx="683.8" cy="392.6" r="2.4" fill="none" stroke="var(--blue,#2d5b8a)" stroke-width=".9" opacity=".7" vector-effect="non-scaling-stroke"/><circle cx="583.8" cy="365.4" r="2.4" fill="none" stroke="var(--blue,#2d5b8a)" stroke-width=".9" opacity=".7" vector-effect="non-scaling-stroke"/><circle cx="803.2" cy="444.0" r="2.4" fill="none" stroke="var(--blue,#2d5b8a)" stroke-width=".9" opacity=".7" vector-effect="non-scaling-stroke"/><circle cx="787.3" cy="431.1" r="2.4" fill="none" stroke="var(--blue,#2d5b8a)" stroke-width=".9" opacity=".7" vector-effect="non-scaling-stroke"/><circle cx="732.1" cy="223.7" r="2.4" fill="none" stroke="var(--blue,#2d5b8a)" stroke-width=".9" opacity=".7" vector-effect="non-scaling-stroke"/><circle cx="712.5" cy="374.6" r="2.4" fill="none" stroke="var(--blue,#2d5b8a)" stroke-width=".9" opacity=".7" vector-effect="non-scaling-stroke"/><circle cx="799.1" cy="224.6" r="2.4" fill="none" stroke="var(--blue,#2d5b8a)" stroke-width=".9" opacity=".7" vector-effect="non-scaling-stroke"/><circle cx="660.1" cy="265.1" r="2.4" fill="none" stroke="var(--blue,#2d5b8a)" stroke-width=".9" opacity=".7" vector-effect="non-scaling-stroke"/><circle cx="747.2" cy="436.2" r="2.4" fill="none" stroke="var(--blue,#2d5b8a)" stroke-width=".9" opacity=".7" vector-effect="non-scaling-stroke"/><circle cx="730.4" cy="361.2" r="2.4" fill="none" stroke="var(--blue,#2d5b8a)" stroke-width=".9" opacity=".7" vector-effect="non-scaling-stroke"/><circle cx="782.0" cy="233.4" r="2.4" fill="none" stroke="var(--blue,#2d5b8a)" stroke-width=".9" opacity=".7" vector-effect="non-scaling-stroke"/><circle cx="546.9" cy="252.7" r="2.4" fill="none" stroke="var(--blue,#2d5b8a)" stroke-width=".9" opacity=".7" vector-effect="non-scaling-stroke"/><circle cx="752.9" cy="221.4" r="2.4" fill="none" stroke="var(--blue,#2d5b8a)" stroke-width=".9" opacity=".7" vector-effect="non-scaling-stroke"/><circle cx="336.8" cy="306.0" r="2.4" fill="none" stroke="var(--blue,#2d5b8a)" stroke-width=".9" opacity=".7" vector-effect="non-scaling-stroke"/><circle cx="793.5" cy="379.9" r="2.4" fill="none" stroke="var(--blue,#2d5b8a)" stroke-width=".9" opacity=".7" vector-effect="non-scaling-stroke"/><circle cx="751.4" cy="273.1" r="2.4" fill="none" stroke="var(--blue,#2d5b8a)" stroke-width=".9" opacity=".7" vector-effect="non-scaling-stroke"/><circle cx="728.8" cy="404.8" r="2.4" fill="none" stroke="var(--blue,#2d5b8a)" stroke-width=".9" opacity=".7" vector-effect="non-scaling-stroke"/><circle cx="635.9" cy="353.3" r="2.4" fill="none" stroke="var(--blue,#2d5b8a)" stroke-width=".9" opacity=".7" vector-effect="non-scaling-stroke"/><circle cx="550.0" cy="318.3" r="2.4" fill="none" stroke="var(--blue,#2d5b8a)" stroke-width=".9" opacity=".7" vector-effect="non-scaling-stroke"/><circle cx="754.9" cy="239.5" r="2.4" fill="none" stroke="var(--blue,#2d5b8a)" stroke-width=".9" opacity=".7" vector-effect="non-scaling-stroke"/><circle cx="745.5" cy="380.9" r="2.4" fill="none" stroke="var(--blue,#2d5b8a)" stroke-width=".9" opacity=".7" vector-effect="non-scaling-stroke"/><circle cx="736.5" cy="264.4" r="2.4" fill="none" stroke="var(--blue,#2d5b8a)" stroke-width=".9" opacity=".7" vector-effect="non-scaling-stroke"/><circle cx="453.3" cy="246.3" r="2.4" fill="none" stroke="var(--blue,#2d5b8a)" stroke-width=".9" opacity=".7" vector-effect="non-scaling-stroke"/><circle cx="794.5" cy="308.3" r="2.4" fill="none" stroke="var(--blue,#2d5b8a)" stroke-width=".9" opacity=".7" vector-effect="non-scaling-stroke"/><circle cx="696.6" cy="233.1" r="2.4" fill="none" stroke="var(--blue,#2d5b8a)" stroke-width=".9" opacity=".7" vector-effect="non-scaling-stroke"/><circle cx="779.3" cy="389.5" r="2.4" fill="none" stroke="var(--blue,#2d5b8a)" stroke-width=".9" opacity=".7" vector-effect="non-scaling-stroke"/><circle cx="622.5" cy="212.7" r="2.4" fill="none" stroke="var(--blue,#2d5b8a)" stroke-width=".9" opacity=".7" vector-effect="non-scaling-stroke"/><circle cx="762.7" cy="402.8" r="2.4" fill="none" stroke="var(--blue,#2d5b8a)" stroke-width=".9" opacity=".7" vector-effect="non-scaling-stroke"/><circle cx="713.4" cy="272.0" r="2.4" fill="none" stroke="var(--blue,#2d5b8a)" stroke-width=".9" opacity=".7" vector-effect="non-scaling-stroke"/><circle cx="677.5" cy="210.5" r="2.4" fill="none" stroke="var(--blue,#2d5b8a)" stroke-width=".9" opacity=".7" vector-effect="non-scaling-stroke"/><circle cx="785.7" cy="333.4" r="2.4" fill="none" stroke="var(--blue,#2d5b8a)" stroke-width=".9" opacity=".7" vector-effect="non-scaling-stroke"/><circle cx="678.3" cy="347.0" r="2.4" fill="none" stroke="var(--blue,#2d5b8a)" stroke-width=".9" opacity=".7" vector-effect="non-scaling-stroke"/><circle cx="742.2" cy="316.7" r="2.4" fill="none" stroke="var(--blue,#2d5b8a)" stroke-width=".9" opacity=".7" vector-effect="non-scaling-stroke"/><circle cx="758.0" cy="195.3" r="2.4" fill="none" stroke="var(--blue,#2d5b8a)" stroke-width=".9" opacity=".7" vector-effect="non-scaling-stroke"/><circle cx="733.8" cy="196.9" r="2.4" fill="none" stroke="var(--blue,#2d5b8a)" stroke-width=".9" opacity=".7" vector-effect="non-scaling-stroke"/><circle cx="630.5" cy="240.8" r="2.4" fill="none" stroke="var(--blue,#2d5b8a)" stroke-width=".9" opacity=".7" vector-effect="non-scaling-stroke"/><circle cx="785.7" cy="190.4" r="2.4" fill="none" stroke="var(--blue,#2d5b8a)" stroke-width=".9" opacity=".7" vector-effect="non-scaling-stroke"/><circle cx="774.9" cy="311.7" r="2.4" fill="none" stroke="var(--blue,#2d5b8a)" stroke-width=".9" opacity=".7" vector-effect="non-scaling-stroke"/><circle cx="706.0" cy="213.4" r="2.4" fill="none" stroke="var(--blue,#2d5b8a)" stroke-width=".9" opacity=".7" vector-effect="non-scaling-stroke"/><circle cx="638.7" cy="291.8" r="2.4" fill="none" stroke="var(--blue,#2d5b8a)" stroke-width=".9" opacity=".7" vector-effect="non-scaling-stroke"/><circle cx="270.0" cy="329.4" r="2.4" fill="none" stroke="var(--blue,#2d5b8a)" stroke-width=".9" opacity=".7" vector-effect="non-scaling-stroke"/><circle cx="688.3" cy="361.2" r="2.4" fill="none" stroke="var(--blue,#2d5b8a)" stroke-width=".9" opacity=".7" vector-effect="non-scaling-stroke"/><circle cx="564.8" cy="309.5" r="2.4" fill="none" stroke="var(--blue,#2d5b8a)" stroke-width=".9" opacity=".7" vector-effect="non-scaling-stroke"/><circle cx="667.5" cy="368.7" r="2.4" fill="none" stroke="var(--blue,#2d5b8a)" stroke-width=".9" opacity=".7" vector-effect="non-scaling-stroke"/><circle cx="647.7" cy="216.4" r="2.4" fill="none" stroke="var(--blue,#2d5b8a)" stroke-width=".9" opacity=".7" vector-effect="non-scaling-stroke"/><circle cx="683.9" cy="279.1" r="2.4" fill="none" stroke="var(--blue,#2d5b8a)" stroke-width=".9" opacity=".7" vector-effect="non-scaling-stroke"/><path d="M150.0 244.6C154.8 244.1 169.2 242.6 178.8 241.6C188.4 240.6 198.0 239.6 207.6 238.6C217.2 237.6 226.8 236.6 236.3 235.6C245.9 234.6 255.5 233.6 265.1 232.6C274.7 231.6 284.3 230.6 293.9 229.6C303.5 228.6 313.1 227.6 322.7 226.6C332.3 225.6 341.9 224.6 351.5 223.6C361.1 222.6 370.7 221.6 380.3 220.6C389.9 219.6 399.4 218.6 409.0 217.6C418.6 216.6 428.2 215.6 437.8 214.6C447.4 213.6 457.0 212.6 466.6 211.6C476.2 210.6 485.8 209.6 495.4 208.6C505.0 207.6 514.6 206.6 524.2 205.6C533.8 204.6 543.4 203.6 553.0 202.6C562.6 201.6 572.1 200.6 581.7 199.6C591.3 198.6 600.9 197.6 610.5 196.6C620.1 195.6 629.7 194.6 639.3 193.6C648.9 192.6 658.5 191.6 668.1 190.6C677.7 189.6 687.3 188.6 696.9 187.7C706.5 186.7 716.1 185.7 725.7 184.7C735.2 183.7 744.8 182.7 754.4 181.7C764.0 180.7 773.6 179.7 783.2 178.7C792.8 177.7 807.2 176.2 812.0 175.7" class="rox"/><path d="M150.0 244.6C164.4 260.4 188.4 319.0 236.3 339.2C284.3 359.4 385.1 358.7 437.8 366.1C490.6 373.5 505.0 371.2 553.0 383.5C600.9 395.8 682.5 424.4 725.7 440.0C768.8 455.6 797.6 470.8 812.0 476.9" class="rbl"/><circle cx="150.0" cy="244.6" r="4.2" fill="var(--paper,#f3efe6)" stroke="var(--blue,#2d5b8a)" stroke-width="1.3" vector-effect="non-scaling-stroke"/><circle cx="236.3" cy="339.2" r="4.2" fill="var(--paper,#f3efe6)" stroke="var(--blue,#2d5b8a)" stroke-width="1.3" vector-effect="non-scaling-stroke"/><circle cx="437.8" cy="366.1" r="4.2" fill="var(--paper,#f3efe6)" stroke="var(--blue,#2d5b8a)" stroke-width="1.3" vector-effect="non-scaling-stroke"/><circle cx="553.0" cy="383.5" r="4.2" fill="var(--paper,#f3efe6)" stroke="var(--blue,#2d5b8a)" stroke-width="1.3" vector-effect="non-scaling-stroke"/><circle cx="725.7" cy="440.0" r="4.2" fill="var(--paper,#f3efe6)" stroke="var(--blue,#2d5b8a)" stroke-width="1.3" vector-effect="non-scaling-stroke"/><circle cx="812.0" cy="476.9" r="4.2" fill="var(--paper,#f3efe6)" stroke="var(--blue,#2d5b8a)" stroke-width="1.3" vector-effect="non-scaling-stroke"/><path d="M150.0 499.9V150.0M150.0 499.9H812.0" class="r"/><text x="170" y="190" class="l ox h">Créer : entraîner la frontière</text><text x="170" y="207" class="ll h">TENDANCE ESTIMÉE : × 2,4 / AN</text><path d="M800 148 L784 170" class="lead"/><text x="806" y="144" class="ll ox h" text-anchor="end">FAISCEAU × 2,0 – × 2,9 / AN</text><text x="250" y="442" class="l bl h">Reproduire : acheter la capacité déjà démontrée</text><text x="250" y="459" class="ll h">PRIX D’INFÉRENCE · NIVEAU GPT-3.5 SUR MMLU · 6 POINTS RELEVÉS</text><text x="250" y="476" class="ll ox h">÷ 280 EN 23 MOIS</text><text x="560" y="292" class="l ox h" text-anchor="middle">L’ÉCART OÙ PROLIFÈRENT LES MODÈLES</text><text x="560" y="310" class="ll h" text-anchor="middle">DÉRIVÉS · DISTILLÉS · ADAPTÉS · QUANTIFIÉS</text><path d="M834 175.7 V476.9" class="rox" stroke-dasharray="4 3"/><path d="M834 175.7 h-10m10 0h10M834 476.9 h-10m10 0h10" class="rox"/><text x="852" y="318" class="val ox h">× 1500</text><text x="852" y="336" class="ll ox h">EN 23 MOIS</text><path d="M60 552H940" class="rl"/><text x="60" y="574" class="ll">× 1500 EST LE RAPPORT DE DEUX INDICES RAMENÉS À LA MÊME BASE — CE N’EST PAS UN PRIX</text></svg>
