<svg class="cm-diagram cm-03" viewBox="0 0 1000 790" role="img" aria-labelledby="cm-03-t cm-03-d" xmlns="http://www.w3.org/2000/svg"><title id="cm-03-t">Chaîne d'approvisionnement cognitive : filière déclarée et dépôt effectif</title><desc id="cm-03-d">La planche superpose deux registres alignés sur les mêmes sept colonnes. En haut, les sept maillons de la filière — préentraîner, post-entraîner, distiller, adapter, greffer des adaptateurs, quantifier, intégrer — répartis entre sept acteurs, au-dessus d'une ligne de provenance déclarée faite de signatures, de manifestes, de licences et de versions : ce que la nomenclature peut nommer. En bas, la coupe du même artefact aux mêmes colonnes. Les strates ne traversent pas toute la coupe : chacune commence à la colonne du maillon qui l'a déposée, et l'angle de sa hachure désigne cette origine. La strate des garde-fous, déposée au post-entraînement, se pince brutalement à la colonne de la distillation puis reste mince : les capacités passent, les garde-fous ne suivent pas nécessairement. La strate la plus épaisse, celle des dispositions non identifiées, est rendue en pointillé et s'épaissit à chaque transformation sans se rattacher à aucune colonne d'origine.</desc><defs><marker id="cm-03-ar" viewBox="0 0 10 10" refX="9" refY="5" markerWidth="7" markerHeight="7" orient="auto"><path class="cm-03-p0" d="M1 1l8 4-8 4"/></marker><marker id="cm-03-arbl" viewBox="0 0 10 10" refX="9" refY="5" markerWidth="7" markerHeight="7" orient="auto"><path class="cm-03-p1" d="M1 1l8 4-8 4"/></marker><pattern id="cm-03-cap" width="5.5" height="5.5" patternUnits="userSpaceOnUse" patternTransform="rotate(20)"><line class="cm-03-p2" x1="0" y1="0" x2="0" y2="5.5"/></pattern><pattern id="cm-03-gf" width="4.0" height="4.0" patternUnits="userSpaceOnUse" patternTransform="rotate(45)"><line class="cm-03-p3" x1="0" y1="0" x2="0" y2="4.0"/></pattern><pattern id="cm-03-tr" width="5.5" height="5.5" patternUnits="userSpaceOnUse" patternTransform="rotate(70)"><line class="cm-03-p4" x1="0" y1="0" x2="0" y2="5.5"/></pattern><pattern id="cm-03-mt" width="6.0" height="6.0" patternUnits="userSpaceOnUse" patternTransform="rotate(110)"><line class="cm-03-p5" x1="0" y1="0" x2="0" y2="6.0"/></pattern><pattern id="cm-03-qt" width="4.5" height="4.5" patternUnits="userSpaceOnUse" patternTransform="rotate(135)"><line class="cm-03-p6" x1="0" y1="0" x2="0" y2="4.5"/></pattern><pattern id="cm-03-ni" width="4.6" height="4.6" patternUnits="userSpaceOnUse"><circle class="cm-03-p7" cx="2.3" cy="2.3" r="0.72"/><circle class="cm-03-p7" cx="0" cy="0" r="0.72"/><circle class="cm-03-p7" cx="4.6" cy="4.6" r="0.72"/><circle class="cm-03-p7" cx="0" cy="4.6" r="0.72"/><circle class="cm-03-p7" cx="4.6" cy="0" r="0.72"/></pattern><pattern id="cm-03-hd0" width="5" height="5" patternUnits="userSpaceOnUse" patternTransform="rotate(45)"><line class="cm-03-p8" x1="0" y1="0" x2="0" y2="5"/></pattern></defs><style>.cm-03 .r{fill:none;stroke:var(--ink,#1c1c18);stroke-width:1;vector-effect:non-scaling-stroke}
.cm-03 .rf{fill:none;stroke:var(--ink,#1c1c18);stroke-width:.6;vector-effect:non-scaling-stroke}
.cm-03 .rl{fill:none;stroke:var(--line,#c9c1b3);stroke-width:.8;vector-effect:non-scaling-stroke}
.cm-03 .rg{fill:none;stroke:var(--line,#c9c1b3);stroke-width:.8;stroke-dasharray:2 6;vector-effect:non-scaling-stroke}
.cm-03 .rox{fill:none;stroke:var(--oxide,#a84e2f);stroke-width:1.6;vector-effect:non-scaling-stroke}
.cm-03 .rbl{fill:none;stroke:var(--blue,#2d5b8a);stroke-width:1.6;vector-effect:non-scaling-stroke}
.cm-03 .rms{fill:none;stroke:var(--moss,#52634e);stroke-width:1.4;vector-effect:non-scaling-stroke}
.cm-03 .rdash{fill:none;stroke:var(--graphite,#57564f);stroke-width:.9;stroke-dasharray:3 5;vector-effect:non-scaling-stroke}
.cm-03 .rgd{fill:none;stroke:var(--oxide,#a84e2f);stroke-width:.9;stroke-dasharray:3 4;vector-effect:non-scaling-stroke}
.cm-03 .rbd{fill:none;stroke:var(--blue,#2d5b8a);stroke-width:1.2;stroke-dasharray:3 4;vector-effect:non-scaling-stroke}
.cm-03 .lead{fill:none;stroke:var(--graphite,#57564f);stroke-width:.7;vector-effect:non-scaling-stroke}
.cm-03 .card{fill:var(--paper,#f3efe6);stroke:var(--ink,#1c1c18);stroke-width:.9;vector-effect:non-scaling-stroke}
.cm-03 .cardl{fill:var(--paper,#f3efe6);stroke:var(--line,#c9c1b3);stroke-width:.8;vector-effect:non-scaling-stroke}
.cm-03 text{fill:var(--ink,#1c1c18)}
.cm-03 .ts{font-family:var(--font-editorial,"Newsreader",Georgia,serif);font-size:25px;font-weight:500;letter-spacing:-.015em}
.cm-03 .tsm{font-family:var(--font-editorial,"Newsreader",Georgia,serif);font-size:18px;font-weight:500;letter-spacing:-.01em}
.cm-03 .t{font-family:var(--font-interface,"Inter",Arial,sans-serif);font-size:14.5px;font-weight:500}
.cm-03 .tt{font-family:var(--font-interface,"Inter",Arial,sans-serif);font-size:12.5px;font-weight:500}
.cm-03 .l{fill:var(--graphite,#57564f);font-family:var(--font-code,"IBM Plex Mono",ui-monospace,monospace);font-size:11.5px;font-weight:500;letter-spacing:.05em}
.cm-03 .ll{fill:var(--graphite,#57564f);font-family:var(--font-code,"IBM Plex Mono",ui-monospace,monospace);font-size:10.5px;font-weight:500;letter-spacing:.07em}
.cm-03 .num{fill:var(--oxide,#a84e2f);font-family:var(--font-code,"IBM Plex Mono",ui-monospace,monospace);font-size:13px;font-weight:500;letter-spacing:.03em}
.cm-03 .val{font-family:var(--font-code,"IBM Plex Mono",ui-monospace,monospace);font-size:18px;font-weight:500}
.cm-03 .ox{fill:var(--oxide,#a84e2f)}
.cm-03 .bl{fill:var(--blue,#2d5b8a)}
.cm-03 .ms{fill:var(--moss,#52634e)}
.cm-03 .gr{fill:var(--graphite,#57564f)}
.cm-03 .h{paint-order:stroke;stroke:var(--paper,#f3efe6);stroke-width:3px;stroke-linejoin:round}
.cm-03 .hh{paint-order:stroke;stroke:var(--paper,#f3efe6);stroke-width:4.5px;stroke-linejoin:round}
.cm-03 .tc{font-family:var(--font-editorial,Georgia,serif);font-size:15.5px;font-weight:500}
.cm-03 .lx{fill:var(--graphite,#57564f);font-family:var(--font-code,"IBM Plex Mono",monospace);font-size:9.5px;font-weight:500;letter-spacing:.05em}
.cm-03 .cm-03-p0{fill:none;stroke:var(--ink,#1c1c18);stroke-width:1.3}
.cm-03 .cm-03-p1{fill:none;stroke:var(--blue,#2d5b8a);stroke-width:1.3}
.cm-03 .cm-03-p2{stroke:var(--blue,#2d5b8a);stroke-width:0.7;opacity:0.5}
.cm-03 .cm-03-p3{stroke:var(--oxide,#a84e2f);stroke-width:0.8;opacity:0.62}
.cm-03 .cm-03-p4{stroke:var(--blue,#2d5b8a);stroke-width:0.7;opacity:0.5}
.cm-03 .cm-03-p5{stroke:var(--moss,#52634e);stroke-width:0.7;opacity:0.55}
.cm-03 .cm-03-p6{stroke:var(--ink,#1c1c18);stroke-width:0.65;opacity:0.46}
.cm-03 .cm-03-p7{fill:var(--graphite,#57564f);opacity:0.62}
.cm-03 .cm-03-p8{stroke:var(--blue,#2d5b8a);stroke-width:0.7;opacity:0.46}</style><text x="60" y="28" class="l ox h">PL.&#8202;03 / FILIÈRE COGNITIVE</text><text x="940" y="28" text-anchor="end" class="ll h">SEPT MAILLONS · UN SEUL ARTEFACT</text><text x="500" y="770" text-anchor="middle" class="ll ox h">PROVENANCE DÉCLARÉE ≠ HÉRITAGE EFFECTIF</text><path d="M52 52H948" class="r"/><text x="60" y="96" class="ts">Sept transformations, un seul artefact</text><text x="60" y="146" class="l bl">01 / CE QUE LA NOMENCLATURE PEUT NOMMER — SEPT MAILLONS, SEPT PÉRIMÈTRES DE RESPONSABILITÉ</text><rect x="65.0" y="162" width="115.7" height="70" class="card"/><rect x="65.0" y="162" width="115.7" height="4" fill="url(#cm-03-hd0)"/><text x="73.0" y="180" class="num">01</text><text x="172.71428571428572" y="180" class="lx" text-anchor="end">A₁</text><text x="122.85714285714286" y="203" class="tc" text-anchor="middle">Préentraîner</text><text x="122.85714285714286" y="222" class="lx" text-anchor="middle">CORPUS · FILTRES</text><path d="M181.2 197h8" class="rf" marker-end="url(#cm-03-ar)"/><rect x="190.7" y="162" width="115.7" height="70" class="card"/><rect x="190.7" y="162" width="115.7" height="4" fill="url(#cm-03-hd0)"/><text x="198.71428571428572" y="180" class="num">02</text><text x="298.42857142857144" y="180" class="lx" text-anchor="end">A₂</text><text x="248.57142857142856" y="203" class="tc" text-anchor="middle">Post-entraîner</text><text x="248.57142857142856" y="222" class="lx" text-anchor="middle">RLHF · SÛRETÉ</text><path d="M306.9 197h8" class="rf" marker-end="url(#cm-03-ar)"/><rect x="316.4" y="162" width="115.7" height="70" class="card"/><rect x="316.4" y="162" width="115.7" height="4" fill="url(#cm-03-hd0)"/><text x="324.42857142857144" y="180" class="num">03</text><text x="424.14285714285717" y="180" class="lx" text-anchor="end">A₃</text><text x="374.2857142857143" y="203" class="tc" text-anchor="middle">Distiller</text><text x="374.2857142857143" y="222" class="lx" text-anchor="middle">ENSEIGNANT TIERS</text><path d="M432.6 197h8" class="rf" marker-end="url(#cm-03-ar)"/><rect x="442.1" y="162" width="115.7" height="70" class="card"/><rect x="442.1" y="162" width="115.7" height="4" fill="url(#cm-03-hd0)"/><text x="450.1428571428571" y="180" class="num">04</text><text x="549.8571428571428" y="180" class="lx" text-anchor="end">A₄</text><text x="500.0" y="203" class="tc" text-anchor="middle">Adapter</text><text x="500.0" y="222" class="lx" text-anchor="middle">DONNÉES MÉTIER</text><path d="M558.4 197h8" class="rf" marker-end="url(#cm-03-ar)"/><rect x="567.9" y="162" width="115.7" height="70" class="card"/><rect x="567.9" y="162" width="115.7" height="4" fill="url(#cm-03-hd0)"/><text x="575.8571428571429" y="180" class="num">05</text><text x="675.5714285714286" y="180" class="lx" text-anchor="end">A₅</text><text x="625.7142857142857" y="203" class="tc" text-anchor="middle">Greffer</text><text x="625.7142857142857" y="222" class="lx" text-anchor="middle">ADAPTATEURS LoRA</text><path d="M684.1 197h8" class="rf" marker-end="url(#cm-03-ar)"/><rect x="693.6" y="162" width="115.7" height="70" class="card"/><rect x="693.6" y="162" width="115.7" height="4" fill="url(#cm-03-hd0)"/><text x="701.5714285714286" y="180" class="num">06</text><text x="801.2857142857142" y="180" class="lx" text-anchor="end">A₆</text><text x="751.4285714285714" y="203" class="tc" text-anchor="middle">Quantifier</text><text x="751.4285714285714" y="222" class="lx" text-anchor="middle">PRÉCISION RÉDUITE</text><path d="M809.8 197h8" class="rf" marker-end="url(#cm-03-ar)"/><rect x="819.3" y="162" width="115.7" height="70" class="card"/><rect x="819.3" y="162" width="115.7" height="4" fill="url(#cm-03-hd0)"/><text x="827.2857142857142" y="180" class="num">07</text><text x="926.9999999999999" y="180" class="lx" text-anchor="end">A₇</text><text x="877.1428571428571" y="203" class="tc" text-anchor="middle">Intégrer</text><text x="877.1428571428571" y="222" class="lx" text-anchor="middle">AGENT · OUTILS</text><path d="M60.0 250H934.0" class="rbl" marker-end="url(#cm-03-arbl)"/><path d="M122.9 244v12" class="rbl" stroke-width="1"/><path d="M248.6 244v12" class="rbl" stroke-width="1"/><path d="M374.3 244v12" class="rbl" stroke-width="1"/><path d="M500.0 244v12" class="rbl" stroke-width="1"/><path d="M625.7 244v12" class="rbl" stroke-width="1"/><path d="M751.4 244v12" class="rbl" stroke-width="1"/><path d="M877.1 244v12" class="rbl" stroke-width="1"/><text x="60" y="270" class="ll bl">PROVENANCE DÉCLARÉE : SIGNATURES · MANIFESTES · LICENCES · VERSIONS · RESPONSABLES</text><text x="940" y="270" class="ll bl" text-anchor="end">ELLE NOMME LES SEPT MAILLONS</text><text x="60" y="296" class="l ox">02 / CE QUI SE DÉPOSE — LES MÊMES COLONNES, VUES DANS LE MÊME ESPACE PARAMÉTRIQUE</text><path d="M185.7 236V286M185.7 304V326" class="rg"/><path d="M311.4 236V286M311.4 304V326" class="rg"/><path d="M437.1 236V286M437.1 304V326" class="rg"/><path d="M562.9 236V286M562.9 304V326" class="rg"/><path d="M688.6 236V286M688.6 304V326" class="rg"/><path d="M814.3 236V286M814.3 304V326" class="rg"/><path d="M60.0 330.0C85.1 330.0 135.4 330.0 185.7 330.0C236.0 330.0 261.1 330.0 311.4 330.0C361.7 330.0 386.9 330.0 437.1 330.0C487.4 330.0 512.6 330.0 562.9 330.0C613.1 330.0 638.3 330.0 688.6 330.0C738.9 330.0 764.0 330.0 814.3 330.0C864.6 330.0 914.9 330.0 940.0 330.0L940.0 385.8C914.9 386.1 864.6 386.4 814.3 387.4C764.0 388.3 738.9 389.5 688.6 390.4C638.3 391.4 613.1 391.1 562.9 392.0C512.6 392.9 487.4 393.9 437.1 395.1C386.9 396.3 361.7 397.0 311.4 398.2C261.1 399.4 236.0 414.6 185.7 401.3C135.4 388.0 85.1 345.5 60.0 331.6Z" fill="url(#cm-03-cap)" stroke="var(--line,#c9c1b3)" stroke-width=".7" vector-effect="non-scaling-stroke"/><path d="M60.0 331.6C85.1 345.5 135.4 388.0 185.7 401.3C236.0 414.6 261.1 399.4 311.4 398.2C361.7 397.0 386.9 396.3 437.1 395.1C487.4 393.9 512.6 392.9 562.9 392.0C613.1 391.1 638.3 391.4 688.6 390.4C738.9 389.5 764.0 388.3 814.3 387.4C864.6 386.4 914.9 386.1 940.0 385.8L940.0 396.7C914.9 397.3 864.6 398.2 814.3 399.8C764.0 401.3 738.9 403.2 688.6 404.4C638.3 405.6 613.1 405.3 562.9 405.9C512.6 406.6 487.4 401.0 437.1 407.5C386.9 414.0 361.7 439.7 311.4 438.5C261.1 437.3 236.0 422.7 185.7 401.3C135.4 379.9 85.1 345.5 60.0 331.6Z" fill="url(#cm-03-gf)" stroke="var(--line,#c9c1b3)" stroke-width=".7" vector-effect="non-scaling-stroke"/><path d="M60.0 331.6C85.1 345.5 135.4 379.9 185.7 401.3C236.0 422.7 261.1 437.3 311.4 438.5C361.7 439.7 386.9 414.0 437.1 407.5C487.4 401.0 512.6 406.6 562.9 405.9C613.1 405.3 638.3 405.6 688.6 404.4C738.9 403.2 764.0 401.3 814.3 399.8C864.6 398.2 914.9 397.3 940.0 396.6L940.0 438.5C914.9 439.4 864.6 441.0 814.3 443.1C764.0 445.3 738.9 447.5 688.6 449.3C638.3 451.2 613.1 451.5 562.9 452.4C512.6 453.4 487.4 456.8 437.1 454.0C386.9 451.2 361.7 449.0 311.4 438.5C261.1 428.0 236.0 422.7 185.7 401.3C135.4 379.9 85.1 345.5 60.0 331.6Z" fill="url(#cm-03-tr)" stroke="var(--line,#c9c1b3)" stroke-width=".7" vector-effect="non-scaling-stroke"/><path d="M60.0 331.6C85.1 345.5 135.4 379.9 185.7 401.3C236.0 422.7 261.1 428.0 311.4 438.5C361.7 449.0 386.9 451.2 437.1 454.0C487.4 456.8 512.6 453.4 562.9 452.4C613.1 451.5 638.3 451.2 688.6 449.4C738.9 447.5 764.0 445.3 814.3 443.1C864.6 441.0 914.9 439.4 940.0 438.5L940.0 475.7C914.9 476.9 864.6 479.1 814.3 481.9C764.0 484.7 738.9 491.2 688.6 489.7C638.3 488.1 613.1 481.3 562.9 474.1C512.6 467.0 487.4 461.1 437.1 454.0C386.9 446.9 361.7 449.0 311.4 438.5C261.1 428.0 236.0 422.7 185.7 401.3C135.4 379.9 85.1 345.5 60.0 331.6Z" fill="url(#cm-03-mt)" stroke="var(--line,#c9c1b3)" stroke-width=".7" vector-effect="non-scaling-stroke"/><path d="M60.0 331.6C85.1 345.5 135.4 379.9 185.7 401.3C236.0 422.7 261.1 428.0 311.4 438.5C361.7 449.0 386.9 446.9 437.1 454.0C487.4 461.1 512.6 467.0 562.9 474.2C613.1 481.3 638.3 488.1 688.6 489.6C738.9 491.2 764.0 484.7 814.3 481.9C864.6 479.1 914.9 476.9 940.0 475.7L940.0 492.8C914.9 494.3 864.6 501.1 814.3 500.5C764.0 499.9 738.9 494.9 688.6 489.6C638.3 484.4 613.1 481.3 562.9 474.2C512.6 467.0 487.4 461.1 437.1 454.0C386.9 446.9 361.7 449.0 311.4 438.5C261.1 428.0 236.0 422.7 185.7 401.3C135.4 379.9 85.1 345.5 60.0 331.6Z" fill="url(#cm-03-qt)" stroke="var(--line,#c9c1b3)" stroke-width=".7" vector-effect="non-scaling-stroke"/><path d="M60.0 331.6C85.1 345.5 135.4 379.9 185.7 401.3C236.0 422.7 261.1 428.0 311.4 438.5C361.7 449.0 386.9 446.9 437.1 454.0C487.4 461.1 512.6 467.0 562.9 474.2C613.1 481.3 638.3 484.4 688.6 489.6C738.9 494.9 764.0 499.9 814.3 500.5C864.6 501.1 914.9 494.3 940.0 492.8L940.0 613.6C914.9 612.7 864.6 614.6 814.3 609.0C764.0 603.4 738.9 596.0 688.6 585.8C638.3 575.5 613.1 569.3 562.9 557.9C512.6 546.4 487.4 541.7 437.1 528.4C386.9 515.1 361.7 508.6 311.4 491.2C261.1 473.8 236.0 473.2 185.7 441.6C135.4 410.0 85.1 354.8 60.0 333.1Z" fill="url(#cm-03-ni)" stroke="var(--line,#c9c1b3)" stroke-width=".7" vector-effect="non-scaling-stroke"/><path d="M185.7 330.0 V441.6" class="rg" opacity=".7"/><path d="M311.4 330.0 V491.2" class="rg" opacity=".7"/><path d="M437.1 330.0 V528.4" class="rg" opacity=".7"/><path d="M562.9 330.0 V557.9" class="rg" opacity=".7"/><path d="M688.6 330.0 V585.8" class="rg" opacity=".7"/><path d="M814.3 330.0 V609.0" class="rg" opacity=".7"/><path d="M60.0 330.0 H940.0" class="rl"/><text x="196" y="368.35738636363635" class="lx h">CAPACITÉS GÉNÉRALES</text><text x="272" y="418.94375" class="lx h">GARDE-FOUS</text><text x="462" y="433.2284090909091" class="lx h">CAPACITÉS TRANSFÉRÉES</text><text x="700" y="469.0369318181818" class="lx h">SPÉCIALISATION MÉTIER</text><text x="932" y="491.05397727272725" class="lx h" text-anchor="end">ARTEFACTS DE QUANTIFICATION</text><text x="660" y="537.4625" class="lx h">DISPOSITIONS NON IDENTIFIÉES</text><text x="660" y="551.4625" class="lx ox h">AUCUNE COLONNE D’ORIGINE</text><text x="96" y="566" class="lx">L’ARTEFACT N’EXISTE PAS ENCORE :</text><text x="96" y="580" class="lx">RIEN N’A ÉTÉ DÉPOSÉ</text><path d="M92 562 L74 540" class="lead"/><path d="M437.1 236V411.5" class="rgd"/><circle cx="437.1" cy="401.3" r="9" fill="none" stroke="var(--oxide,#a84e2f)" stroke-width="1.2" vector-effect="non-scaling-stroke"/><text x="449.1428571428571" y="320" class="ll ox h">PINCEMENT — LA DISTILLATION TRANSFÈRE LES CAPACITÉS, PAS LES GARDE-FOUS</text><rect x="60" y="644" width="24" height="24" fill="url(#cm-03-cap)" stroke="var(--line,#c9c1b3)" stroke-width=".6" vector-effect="non-scaling-stroke"/><text x="92" y="662" class="lx">CAPACITÉS GÉNÉRALES</text><rect x="360" y="644" width="24" height="24" fill="url(#cm-03-tr)" stroke="var(--line,#c9c1b3)" stroke-width=".6" vector-effect="non-scaling-stroke"/><text x="392" y="662" class="lx">CAPACITÉS TRANSFÉRÉES</text><rect x="660" y="644" width="24" height="24" fill="url(#cm-03-qt)" stroke="var(--line,#c9c1b3)" stroke-width=".6" vector-effect="non-scaling-stroke"/><text x="692" y="662" class="lx">ARTEFACTS DE QUANTIFICATION</text><rect x="60" y="678" width="24" height="24" fill="url(#cm-03-gf)" stroke="var(--line,#c9c1b3)" stroke-width=".6" vector-effect="non-scaling-stroke"/><text x="92" y="696" class="lx">GARDE-FOUS</text><rect x="360" y="678" width="24" height="24" fill="url(#cm-03-mt)" stroke="var(--line,#c9c1b3)" stroke-width=".6" vector-effect="non-scaling-stroke"/><text x="392" y="696" class="lx">SPÉCIALISATION MÉTIER</text><rect x="660" y="678" width="24" height="24" fill="url(#cm-03-ni)" stroke="var(--line,#c9c1b3)" stroke-width=".6" vector-effect="non-scaling-stroke"/><text x="692" y="696" class="lx">DISPOSITIONS NON IDENTIFIÉES</text><path d="M60 716H940" class="rl"/></svg>
